<svg width="274" height="64" viewBox="0 0 274 64" fill="none" xmlns="http://www.w3.org/2000/svg">
<rect width="274" height="64" fill="white"/>
<path fill-rule="evenodd" clip-rule="evenodd" d="M58.8876 49.4719L42.2528 59.0281C40.1292 60.4438 37.2978 60.4438 35.1742 59.0281L18.5393 49.4719C16.4157 48.0562 15 45.9326 15 43.1011V23.9888C15 21.5112 16.4157 19.0337 18.5393 17.618L35.1742 8.0618C37.2978 6.64607 40.1292 6.64607 42.2528 8.0618L58.8876 17.618C61.0112 19.0337 62.427 21.1573 62.427 23.9888V43.4551C62.427 45.9326 61.0112 48.4101 58.8876 49.4719Z" fill="url(#paint0_radial)"/>
<path d="M18.5393 33.191C18.1854 33.191 18.1854 33.545 18.1854 33.545C18.1854 33.8989 18.5393 33.8989 18.5393 33.8989C18.8933 34.2528 19.2472 33.8989 19.2472 33.545C19.2472 33.545 18.8933 33.191 18.5393 33.191ZM28.4494 33.191C28.0955 33.191 28.0955 33.545 28.0955 33.545C28.0955 33.8989 28.4494 33.8989 28.4494 33.8989C28.8034 33.8989 28.8034 33.545 28.8034 33.545C29.1573 33.545 28.8034 33.191 28.4494 33.191ZM31.9888 33.191C31.6348 33.191 31.6348 33.545 31.6348 33.545C31.6348 33.8989 31.9888 33.8989 31.9888 33.8989C32.3427 33.8989 32.3427 33.545 32.3427 33.545C32.3427 33.545 32.3427 33.191 31.9888 33.191ZM38.7135 33.191C38.3596 33.191 38.3596 33.545 38.3596 33.545C38.3596 33.8989 38.7135 33.8989 38.7135 33.8989C39.0674 33.8989 39.0674 33.545 39.0674 33.545C39.0674 33.545 39.0674 33.191 38.7135 33.191ZM41.8989 33.191C41.5449 33.191 41.5449 33.545 41.5449 33.545C41.5449 33.8989 41.8989 33.8989 41.8989 33.8989C42.2528 33.8989 42.2528 33.545 42.2528 33.545C42.6067 33.545 42.2528 33.191 41.8989 33.191ZM51.809 33.191C51.4551 33.191 51.4551 33.545 51.4551 33.545C51.4551 33.8989 51.809 33.8989 51.809 33.8989C52.1629 33.8989 52.1629 33.545 52.1629 33.545C52.5169 33.545 52.1629 33.191 51.809 33.191ZM58.5337 33.191C58.1798 33.191 58.1798 33.545 58.1798 33.545C58.1798 33.8989 58.5337 33.8989 58.5337 33.8989C58.8876 33.8989 58.8876 33.545 58.8876 33.545C59.2416 33.545 58.8876 33.191 58.5337 33.191ZM18.5393 36.3764C18.1854 36.3764 18.1854 36.7303 18.1854 36.7303C18.1854 37.4382 18.1854 37.4382 18.5393 37.4382C18.8933 37.4382 19.2472 37.4382 19.2472 37.0843C19.2472 36.7303 18.8933 36.3764 18.5393 36.3764ZM28.4494 36.3764C28.0955 36.3764 28.0955 36.7303 28.0955 36.7303C28.0955 37.4382 28.4494 37.4382 28.4494 37.4382C28.8034 37.4382 29.1573 37.4382 29.1573 37.0843C29.1573 36.7303 28.8034 36.3764 28.4494 36.3764ZM31.9888 36.3764C31.6348 36.3764 31.6348 36.7303 31.6348 36.7303C31.2809 37.4382 31.6348 37.4382 31.9888 37.4382C32.3427 37.4382 32.3427 37.4382 32.3427 37.0843C32.3427 36.7303 32.3427 36.3764 31.9888 36.3764ZM41.8989 36.3764C41.5449 36.3764 41.5449 36.7303 41.5449 36.7303C41.5449 37.4382 41.5449 37.4382 41.8989 37.4382C42.2528 37.4382 42.6067 37.4382 42.6067 37.0843C42.6067 36.7303 42.2528 36.3764 41.8989 36.3764ZM45.0843 37.4382C45.4382 37.4382 45.7921 37.4382 45.7921 37.0843C45.7921 36.7303 45.4382 36.7303 45.4382 36.7303C45.0843 36.7303 45.0843 37.0843 45.0843 37.0843C44.7303 37.4382 45.0843 37.4382 45.0843 37.4382ZM58.5337 36.3764C58.1798 36.3764 58.1798 36.7303 58.1798 36.7303C58.1798 37.4382 58.1798 37.4382 58.5337 37.4382C58.8876 37.4382 58.8876 37.0843 58.8876 37.0843C59.2416 36.7303 58.8876 36.3764 58.5337 36.3764ZM18.5393 39.9157C18.1854 39.9157 18.1854 40.2697 18.1854 40.2697C18.1854 40.6236 18.5393 40.6236 18.5393 40.6236C18.8933 40.9775 19.2472 40.6236 19.2472 40.2697C19.2472 39.9157 18.8933 39.9157 18.5393 39.9157ZM21.7247 39.9157C21.3708 39.9157 21.3708 40.2697 21.3708 40.2697C21.3708 40.6236 21.7247 40.6236 21.7247 40.6236C22.0787 40.9775 22.4326 40.6236 22.4326 40.2697C22.4326 39.9157 22.0787 39.9157 21.7247 39.9157ZM31.9888 40.9775C32.3427 40.9775 32.3427 40.6236 32.3427 40.6236C32.3427 40.2697 31.9888 40.2697 31.9888 40.2697C31.6348 40.2697 31.6348 40.6236 31.6348 40.6236C31.2809 40.6236 31.6348 40.9775 31.9888 40.9775ZM35.1742 40.9775C35.5281 40.9775 35.5281 40.6236 35.5281 40.6236C35.5281 40.2697 35.1742 40.2697 35.1742 40.2697C34.8202 40.2697 34.8202 40.6236 34.8202 40.6236C34.8202 40.6236 34.8202 40.9775 35.1742 40.9775ZM38.7135 39.9157C38.3596 39.9157 38.3596 40.2697 38.3596 40.2697C38.3596 40.6236 38.7135 40.6236 38.7135 40.6236C39.0674 40.6236 39.0674 40.2697 39.0674 40.2697C39.0674 39.9157 39.0674 39.9157 38.7135 39.9157ZM41.8989 39.9157C41.5449 39.9157 41.5449 40.2697 41.5449 40.2697C41.5449 40.6236 41.8989 40.6236 41.8989 40.6236C42.2528 40.6236 42.2528 40.2697 42.2528 40.2697C42.6067 39.9157 42.2528 39.9157 41.8989 39.9157ZM45.0843 40.9775C45.4382 40.9775 45.4382 40.6236 45.4382 40.6236C45.4382 40.2697 45.0843 40.2697 45.0843 40.2697C44.7303 40.2697 44.7303 40.6236 44.7303 40.6236L45.0843 40.9775ZM48.6236 39.9157C48.2697 39.9157 48.2697 40.2697 48.2697 40.2697C48.2697 40.6236 48.6236 40.6236 48.6236 40.6236C48.9775 40.6236 48.9775 40.2697 48.9775 40.2697C49.3315 39.9157 48.9775 39.9157 48.6236 39.9157ZM58.5337 39.9157C58.1798 39.9157 58.1798 40.2697 58.1798 40.2697C58.1798 40.6236 58.5337 40.6236 58.5337 40.6236C58.8876 40.6236 58.8876 40.2697 58.8876 40.2697C59.2416 39.9157 58.8876 39.9157 58.5337 39.9157ZM18.5393 29.6517C18.1854 29.6517 18.1854 30.0056 18.1854 30.3596C18.1854 30.7135 18.5393 30.7135 18.5393 30.7135C18.8933 30.7135 19.2472 30.3596 19.2472 30.3596C19.2472 30.0056 18.8933 29.6517 18.5393 29.6517ZM28.4494 29.6517C28.4494 29.6517 28.0955 30.0056 28.0955 30.3596C28.0955 30.7135 28.4494 30.7135 28.4494 30.7135C28.8034 30.7135 29.1573 30.3596 29.1573 30.3596C29.1573 30.0056 28.8034 29.6517 28.4494 29.6517ZM31.9888 29.6517C31.6348 29.6517 31.2809 30.0056 31.2809 30.3596C31.2809 30.7135 31.6348 30.7135 31.6348 30.7135C32.3427 30.7135 32.3427 30.3596 32.3427 30.3596C32.3427 30.0056 32.3427 29.6517 31.9888 29.6517ZM38.7135 29.6517C38.3596 29.6517 38.0056 30.0056 38.0056 30.3596C38.0056 30.7135 38.3596 30.7135 38.3596 30.7135C39.0674 30.7135 39.0674 30.3596 39.0674 30.3596C39.0674 30.0056 39.0674 29.6517 38.7135 29.6517ZM48.6236 29.6517C48.2697 29.6517 48.2697 30.0056 48.2697 30.0056C48.2697 30.3596 48.6236 30.3596 48.6236 30.3596C48.9775 30.3596 48.9775 30.0056 48.9775 30.0056C49.3315 30.0056 48.9775 29.6517 48.6236 29.6517ZM51.809 29.6517C51.4551 29.6517 51.4551 30.0056 51.4551 30.0056C51.4551 30.3596 51.809 30.3596 51.809 30.3596C52.1629 30.3596 52.1629 30.0056 52.1629 30.0056C52.5169 30.0056 52.1629 29.6517 51.809 29.6517ZM58.5337 29.6517C58.1798 29.6517 58.1798 30.0056 58.1798 30.0056C58.1798 30.3596 58.5337 30.3596 58.5337 30.3596C58.8876 30.3596 58.8876 30.0056 58.8876 30.0056C59.2416 30.0056 58.8876 29.6517 58.5337 29.6517ZM18.5393 26.4663C18.1854 26.4663 18.1854 26.8202 18.1854 26.8202C18.1854 27.1742 18.5393 27.1742 18.5393 27.1742C18.8933 27.5281 19.2472 27.1742 19.2472 26.8202C19.2472 26.8202 18.8933 26.4663 18.5393 26.4663ZM21.7247 26.4663L21.3708 26.8202C21.3708 27.1742 21.7247 27.1742 21.7247 27.1742C22.0787 27.5281 22.4326 27.1742 22.4326 26.8202C22.4326 26.8202 22.0787 26.4663 21.7247 26.4663ZM21.7247 23.2809C21.7247 23.2809 21.3708 23.2809 21.3708 23.6348C21.3708 23.9888 21.7247 23.9888 21.7247 23.9888C22.0787 24.3427 22.4326 23.9888 22.4326 23.6348C22.4326 23.2809 22.0787 23.2809 21.7247 23.2809ZM21.7247 19.7416C21.7247 19.7416 21.3708 20.0955 21.3708 20.4494C21.3708 20.8034 21.7247 20.8034 21.7247 20.8034C22.0787 20.8034 22.4326 20.8034 22.4326 20.4494C22.4326 20.0955 22.0787 19.7416 21.7247 19.7416ZM25.264 19.7416C24.9101 19.7416 24.9101 20.0955 24.9101 20.4494C24.9101 20.8034 25.264 20.8034 25.264 20.8034C25.618 20.8034 25.9719 20.8034 25.9719 20.4494C25.9719 20.0955 25.618 19.7416 25.264 19.7416ZM28.4494 20.8034C28.8034 20.8034 28.8034 20.4494 28.8034 20.4494C28.8034 20.4494 28.8034 19.7416 28.4494 19.7416C28.4494 19.7416 28.0955 20.0955 28.0955 20.4494C28.0955 20.8034 28.4494 20.8034 28.4494 20.8034ZM31.9888 20.8034C32.3427 20.8034 32.3427 20.4494 32.3427 20.4494C32.3427 20.4494 32.3427 19.7416 31.9888 19.7416C31.6348 19.7416 31.2809 20.0955 31.2809 20.4494C31.2809 20.8034 31.6348 20.8034 31.9888 20.8034ZM35.1742 19.7416C35.1742 19.7416 34.8202 20.0955 34.8202 20.4494C34.8202 20.8034 35.1742 20.8034 35.1742 20.8034C35.5281 20.8034 35.5281 20.4494 35.5281 20.4494C35.5281 20.4494 35.5281 19.7416 35.1742 19.7416ZM38.7135 20.8034C39.0674 20.8034 39.0674 20.4494 39.0674 20.4494C39.0674 20.4494 39.0674 19.7416 38.7135 19.7416C38.3596 19.7416 38.0056 20.0955 38.0056 20.4494C38.0056 20.8034 38.3596 20.8034 38.7135 20.8034ZM41.8989 20.8034C42.2528 20.8034 42.2528 20.4494 42.2528 20.4494C42.2528 20.4494 42.2528 19.7416 41.8989 19.7416C41.5449 19.7416 41.5449 20.0955 41.5449 20.4494C41.5449 20.8034 41.5449 20.8034 41.8989 20.8034ZM45.0843 24.3427C45.4382 24.3427 45.4382 23.9888 45.4382 23.9888C45.7921 23.2809 45.4382 23.2809 45.0843 23.2809C45.0843 23.2809 44.7303 23.2809 44.7303 23.6348C44.7303 23.9888 45.0843 24.3427 45.0843 24.3427ZM45.0843 20.8034C45.4382 20.8034 45.4382 20.4494 45.4382 20.4494C45.4382 20.4494 45.4382 19.7416 45.0843 19.7416C45.0843 19.7416 44.7303 20.0955 44.7303 20.4494C44.7303 20.8034 45.0843 20.8034 45.0843 20.8034ZM48.6236 23.2809C48.2697 23.2809 48.2697 23.6348 48.2697 23.6348C48.2697 23.9888 48.6236 23.9888 48.6236 23.9888C48.9775 23.9888 48.9775 23.6348 48.9775 23.6348C49.3315 23.2809 48.9775 23.2809 48.6236 23.2809ZM48.6236 19.7416C48.2697 19.7416 48.2697 20.0955 48.2697 20.0955L48.6236 20.4494C48.9775 20.4494 48.9775 20.0955 48.9775 20.0955C48.9775 20.0955 48.9775 19.7416 48.6236 19.7416ZM51.809 20.8034C52.1629 20.8034 52.1629 20.4494 52.1629 20.4494C52.1629 20.4494 52.1629 19.7416 51.809 19.7416C51.4551 19.7416 51.4551 20.0955 51.4551 20.0955L51.809 20.8034ZM25.264 16.5562C24.9101 16.5562 24.9101 16.9101 24.9101 16.9101C24.9101 17.2641 25.264 17.2641 25.264 17.2641C25.618 17.618 25.9719 17.2641 25.9719 16.9101C25.9719 16.5562 25.618 16.5562 25.264 16.5562ZM28.4494 17.618C28.8034 17.618 28.8034 17.2641 28.8034 17.2641C28.8034 16.9101 28.4494 16.9101 28.4494 16.9101C28.0955 16.9101 28.0955 17.2641 28.0955 17.2641L28.4494 17.618ZM31.9888 17.618C32.3427 17.618 32.3427 17.2641 32.3427 17.2641C32.3427 16.9101 31.9888 16.9101 31.9888 16.9101C31.6348 16.9101 31.6348 17.2641 31.6348 17.2641C31.2809 17.2641 31.6348 17.618 31.9888 17.618ZM35.1742 16.5562C34.8202 16.5562 34.8202 16.9101 34.8202 16.9101C34.8202 17.2641 35.1742 17.2641 35.1742 17.2641C35.5281 17.2641 35.5281 16.9101 35.5281 16.9101C35.882 16.5562 35.5281 16.5562 35.1742 16.5562ZM38.7135 17.618C39.0674 17.618 39.0674 17.2641 39.0674 17.2641C39.0674 16.9101 38.7135 16.9101 38.7135 16.9101C38.3596 16.9101 38.3596 17.2641 38.3596 17.2641C38.0056 17.2641 38.3596 17.618 38.7135 17.618ZM41.8989 17.618C42.2528 17.618 42.2528 17.2641 42.2528 17.2641C42.2528 16.9101 41.8989 16.9101 41.8989 16.9101C41.5449 16.9101 41.5449 17.2641 41.5449 17.2641C41.5449 17.2641 41.5449 17.618 41.8989 17.618ZM45.0843 17.618C45.4382 17.618 45.4382 17.2641 45.4382 17.2641C45.4382 16.9101 45.0843 16.9101 45.0843 16.9101C44.7303 16.9101 44.7303 17.2641 44.7303 17.2641L45.0843 17.618ZM31.9888 14.0787C32.3427 14.0787 32.3427 13.7247 32.3427 13.7247C32.3427 13.7247 32.3427 13.0169 31.9888 13.0169C31.6348 13.0169 31.6348 13.3708 31.6348 13.3708C31.6348 13.3708 31.6348 14.0787 31.9888 14.0787ZM35.1742 13.0169C34.8202 13.0169 34.8202 13.3708 34.8202 13.3708L35.1742 13.7247C35.5281 13.7247 35.5281 13.3708 35.5281 13.3708C35.5281 13.3708 35.5281 13.0169 35.1742 13.0169ZM38.7135 14.0787C39.0674 14.0787 39.0674 13.7247 39.0674 13.7247C39.0674 13.7247 39.0674 13.0169 38.7135 13.0169C38.3596 13.0169 38.3596 13.3708 38.3596 13.3708C38.3596 13.3708 38.3596 14.0787 38.7135 14.0787ZM41.8989 14.0787C42.2528 14.0787 42.2528 13.7247 42.2528 13.7247C42.2528 13.7247 42.2528 13.0169 41.8989 13.0169C41.5449 13.0169 41.5449 13.3708 41.5449 13.3708C41.5449 13.3708 41.5449 14.0787 41.8989 14.0787ZM45.0843 14.0787C45.4382 14.0787 45.4382 13.7247 45.4382 13.7247C45.4382 13.7247 45.4382 13.0169 45.0843 13.0169C44.7303 13.0169 44.7303 13.3708 44.7303 13.3708L45.0843 14.0787ZM48.6236 16.5562C48.2697 16.5562 48.2697 16.9101 48.2697 16.9101C48.2697 17.2641 48.6236 17.2641 48.6236 17.2641C48.9775 17.2641 48.9775 16.9101 48.9775 16.9101C49.3315 16.5562 48.9775 16.5562 48.6236 16.5562ZM51.809 17.618C52.1629 17.618 52.1629 17.2641 52.1629 17.2641C52.1629 16.9101 51.809 16.9101 51.809 16.9101C51.4551 16.9101 51.4551 17.2641 51.4551 17.2641L51.809 17.618ZM55.3483 19.7416C54.9944 19.7416 54.9944 20.0955 54.9944 20.0955L55.3483 20.4494C55.7023 20.4494 55.7023 20.0955 55.7023 20.0955C55.7023 20.0955 55.7023 19.7416 55.3483 19.7416ZM55.3483 46.6405C54.9944 46.6405 54.9944 46.9944 54.9944 46.9944C54.9944 47.3483 55.3483 47.3483 55.3483 47.3483C55.7023 47.3483 55.7023 46.9944 55.7023 46.9944C55.7023 46.6405 55.7023 46.6405 55.3483 46.6405ZM51.809 43.1011C51.4551 43.1011 51.4551 43.4551 51.4551 43.4551C51.4551 43.809 51.809 43.809 51.809 43.809C52.1629 43.809 52.1629 43.4551 52.1629 43.4551C52.1629 43.4551 52.1629 43.1011 51.809 43.1011ZM51.809 46.6405C51.4551 46.6405 51.4551 46.9944 51.4551 46.9944C51.4551 47.3483 51.809 47.3483 51.809 47.3483C52.1629 47.3483 52.1629 46.9944 52.1629 46.9944C52.1629 46.6405 52.1629 46.6405 51.809 46.6405ZM48.6236 43.1011C48.2697 43.1011 48.2697 43.4551 48.2697 43.4551C48.2697 43.809 48.6236 43.809 48.6236 43.809C48.9775 43.809 48.9775 43.4551 48.9775 43.4551C48.9775 43.4551 48.9775 43.1011 48.6236 43.1011ZM48.6236 46.6405C48.2697 46.6405 48.2697 46.9944 48.2697 46.9944C48.2697 47.3483 48.6236 47.3483 48.6236 47.3483C48.9775 47.3483 48.9775 46.9944 48.9775 46.9944C48.9775 46.6405 48.9775 46.6405 48.6236 46.6405ZM45.4382 43.1011C45.0843 43.1011 45.0843 43.4551 45.0843 43.4551C45.0843 43.809 45.4382 43.809 45.4382 43.809C45.7921 43.809 45.7921 43.4551 45.7921 43.4551L45.4382 43.1011ZM45.4382 46.6405C45.0843 46.6405 45.0843 46.9944 45.0843 46.9944C45.0843 47.3483 45.4382 47.3483 45.4382 47.3483C45.7921 47.3483 45.7921 46.9944 45.7921 46.9944C45.7921 46.6405 45.4382 46.6405 45.4382 46.6405ZM41.8989 43.1011C41.5449 43.1011 41.5449 43.4551 41.5449 43.4551C41.5449 43.809 41.8989 43.809 41.8989 43.809C42.2528 43.809 42.2528 43.4551 42.2528 43.4551C42.2528 43.4551 42.2528 43.1011 41.8989 43.1011ZM41.8989 46.6405C41.5449 46.6405 41.5449 46.9944 41.5449 46.9944C41.5449 47.3483 41.8989 47.3483 41.8989 47.3483C42.2528 47.3483 42.2528 46.9944 42.2528 46.9944C42.2528 46.6405 42.2528 46.6405 41.8989 46.6405ZM38.7135 46.6405C38.3596 46.6405 38.3596 46.9944 38.3596 46.9944C38.3596 47.3483 38.7135 47.3483 38.7135 47.3483C39.0674 47.3483 39.0674 46.9944 39.0674 46.9944C39.0674 46.6405 38.7135 46.6405 38.7135 46.6405ZM35.1742 46.6405C34.8202 46.6405 34.8202 46.9944 34.8202 46.9944C34.8202 47.3483 35.1742 47.3483 35.1742 47.3483C35.5281 47.3483 35.5281 46.9944 35.5281 46.9944C35.882 46.6405 35.5281 46.6405 35.1742 46.6405ZM31.9888 46.6405C31.6348 46.6405 31.6348 46.9944 31.6348 46.9944C31.6348 47.3483 31.9888 47.3483 31.9888 47.3483C32.3427 47.3483 32.3427 46.9944 32.3427 46.9944C32.3427 46.6405 32.3427 46.6405 31.9888 46.6405ZM28.4494 46.6405C28.0955 46.6405 28.0955 46.9944 28.0955 46.9944C28.0955 47.3483 28.4494 47.3483 28.4494 47.3483C28.8034 47.3483 28.8034 46.9944 28.8034 46.9944C29.1573 46.6405 28.8034 46.6405 28.4494 46.6405ZM25.264 46.6405C24.9101 46.6405 24.9101 46.9944 24.9101 46.9944C24.9101 47.3483 25.264 47.3483 25.264 47.3483C25.618 47.3483 25.618 46.9944 25.618 46.9944C25.618 46.6405 25.618 46.6405 25.264 46.6405ZM51.809 49.8258C51.4551 49.8258 51.4551 50.1798 51.4551 50.1798C51.4551 50.5337 51.809 50.5337 51.809 50.5337C52.1629 50.5337 52.1629 50.1798 52.1629 50.1798C52.1629 50.1798 52.1629 49.8258 51.809 49.8258ZM48.6236 49.8258C48.2697 49.8258 48.2697 50.1798 48.2697 50.1798C48.2697 50.5337 48.6236 50.5337 48.6236 50.5337C48.9775 50.5337 48.9775 50.1798 48.9775 50.1798C48.9775 50.1798 48.9775 49.8258 48.6236 49.8258ZM45.4382 49.8258C45.0843 49.8258 45.0843 50.1798 45.0843 50.1798C45.0843 50.5337 45.4382 50.5337 45.4382 50.5337C45.7921 50.5337 45.7921 50.1798 45.7921 50.1798L45.4382 49.8258ZM41.8989 49.8258C41.5449 49.8258 41.5449 50.1798 41.5449 50.1798C41.5449 50.5337 41.8989 50.5337 41.8989 50.5337C42.2528 50.5337 42.2528 50.1798 42.2528 50.1798C42.2528 50.1798 42.2528 49.8258 41.8989 49.8258ZM38.7135 49.8258C38.3596 49.8258 38.3596 50.1798 38.3596 50.1798C38.3596 50.5337 38.7135 50.5337 38.7135 50.5337C39.0674 50.5337 39.0674 50.1798 39.0674 50.1798L38.7135 49.8258ZM35.1742 49.8258C34.8202 49.8258 34.8202 50.1798 34.8202 50.1798C34.8202 50.5337 35.1742 50.5337 35.1742 50.5337C35.5281 50.5337 35.5281 50.1798 35.5281 50.1798C35.882 50.1798 35.5281 49.8258 35.1742 49.8258ZM31.9888 49.8258C31.6348 49.8258 31.6348 50.1798 31.6348 50.1798C31.6348 50.5337 31.9888 50.5337 31.9888 50.5337C32.3427 50.5337 32.3427 50.1798 32.3427 50.1798C32.3427 50.1798 32.3427 49.8258 31.9888 49.8258ZM45.4382 53.3652C45.0843 53.3652 45.0843 53.7191 45.0843 53.7191C45.0843 54.073 45.4382 54.073 45.4382 54.073C45.7921 54.073 45.7921 53.7191 45.7921 53.7191C45.7921 53.3652 45.4382 53.3652 45.4382 53.3652ZM41.8989 53.3652C41.5449 53.3652 41.5449 53.7191 41.5449 53.7191C41.5449 54.073 41.8989 54.073 41.8989 54.073C42.2528 54.073 42.2528 53.7191 42.2528 53.7191C42.2528 53.3652 42.2528 53.3652 41.8989 53.3652ZM38.7135 53.3652C38.3596 53.3652 38.3596 53.7191 38.3596 53.7191C38.3596 54.073 38.7135 54.073 38.7135 54.073C39.0674 54.073 39.0674 53.7191 39.0674 53.7191C39.0674 53.3652 38.7135 53.3652 38.7135 53.3652ZM35.1742 53.3652C34.8202 53.3652 34.8202 53.7191 34.8202 53.7191C34.8202 54.073 35.1742 54.073 35.1742 54.073C35.5281 54.073 35.5281 53.7191 35.5281 53.7191C35.882 53.3652 35.5281 53.3652 35.1742 53.3652ZM31.9888 53.3652C31.6348 53.3652 31.6348 53.7191 31.6348 53.7191C31.6348 54.073 31.9888 54.073 31.9888 54.073C32.3427 54.073 32.3427 53.7191 32.3427 53.7191C32.3427 53.3652 32.3427 53.3652 31.9888 53.3652ZM28.4494 49.8258C28.0955 49.8258 28.0955 50.1798 28.0955 50.1798C28.0955 50.5337 28.4494 50.5337 28.4494 50.5337C28.8034 50.5337 28.8034 50.1798 28.8034 50.1798C29.1573 50.1798 28.8034 49.8258 28.4494 49.8258ZM25.264 49.8258C24.9101 49.8258 24.9101 50.1798 24.9101 50.1798C24.9101 50.5337 25.264 50.5337 25.264 50.5337C25.618 50.5337 25.618 50.1798 25.618 50.1798C25.618 50.1798 25.618 49.8258 25.264 49.8258ZM21.7247 43.1011C21.3708 43.1011 21.3708 43.4551 21.3708 43.4551C21.3708 43.809 21.7247 43.809 21.7247 43.809C22.0787 43.809 22.0787 43.4551 22.0787 43.4551C22.4326 43.4551 22.0787 43.1011 21.7247 43.1011ZM21.7247 46.6405C21.3708 46.6405 21.3708 46.9944 21.3708 46.9944C21.3708 47.3483 21.7247 47.3483 21.7247 47.3483C22.0787 47.3483 22.0787 46.9944 22.0787 46.9944C22.4326 46.6405 22.0787 46.6405 21.7247 46.6405ZM31.9888 26.4663C31.6348 26.4663 31.2809 26.8202 31.2809 26.8202C31.2809 27.1742 31.6348 27.1742 31.6348 27.1742C31.9888 27.1742 31.9888 26.8202 31.9888 26.8202C32.3427 26.8202 32.3427 26.4663 31.9888 26.4663ZM35.1742 27.5281C35.5281 27.5281 35.5281 27.1742 35.5281 27.1742C35.5281 26.8202 35.1742 26.8202 35.1742 26.8202C34.8202 26.4663 34.8202 26.8202 34.8202 26.8202C34.8202 27.1742 34.8202 27.5281 35.1742 27.5281ZM38.7135 26.4663C38.3596 26.4663 38.0056 26.8202 38.0056 26.8202C38.0056 27.1742 38.3596 27.1742 38.3596 27.1742C38.7135 27.1742 38.7135 26.8202 38.7135 26.8202C39.0674 26.8202 39.0674 26.4663 38.7135 26.4663ZM45.0843 27.5281C45.4382 27.5281 45.4382 27.1742 45.4382 27.1742C45.4382 26.8202 45.0843 26.8202 45.0843 26.8202C45.0843 26.4663 44.7303 26.8202 44.7303 26.8202C44.7303 27.1742 45.0843 27.5281 45.0843 27.5281ZM48.6236 26.4663C48.2697 26.4663 48.2697 26.8202 48.2697 26.8202C48.2697 27.1742 48.6236 27.1742 48.6236 27.1742C48.9775 27.1742 48.9775 26.8202 48.9775 26.8202C49.3315 26.8202 48.9775 26.4663 48.6236 26.4663ZM51.809 26.4663C51.4551 26.4663 51.4551 26.8202 51.4551 26.8202C51.4551 27.1742 51.809 27.1742 51.809 27.1742C52.1629 27.1742 52.1629 26.8202 52.1629 26.8202C52.5169 26.8202 52.1629 26.4663 51.809 26.4663ZM58.5337 27.5281C58.8876 27.5281 58.8876 27.1742 58.8876 27.1742C58.8876 26.8202 58.5337 26.8202 58.5337 26.8202C58.1798 26.8202 58.1798 27.1742 58.1798 27.1742C58.1798 27.1742 58.1798 27.5281 58.5337 27.5281ZM25.618 33.191C25.618 33.545 25.618 33.8989 25.618 33.8989C25.9719 33.545 25.618 33.191 25.618 33.191ZM21.7247 37.4382C21.7247 37.0843 21.3708 36.3764 21.3708 36.3764C21.3708 36.7303 21.3708 37.0843 21.3708 37.0843C21.3708 37.4382 21.7247 37.4382 21.7247 37.4382ZM21.7247 29.6517C21.3708 29.6517 21.3708 30.0056 21.3708 30.3596C21.3708 30.7135 21.7247 30.7135 21.7247 30.7135C21.7247 30.0056 21.7247 29.6517 21.7247 29.6517ZM25.264 23.2809C24.9101 23.2809 24.9101 23.6348 24.9101 23.6348C24.9101 23.9888 25.264 23.9888 25.264 23.9888L25.9719 23.6348C25.9719 23.6348 25.9719 23.2809 25.264 23.2809ZM28.0955 26.8202C28.0955 27.1742 28.4494 27.1742 28.4494 27.1742C29.1573 27.5281 29.1573 26.8202 29.1573 26.8202C29.1573 26.4663 28.8034 26.4663 28.8034 26.4663L28.0955 26.8202ZM28.4494 39.9157H28.0955L28.8034 40.6236C28.8034 40.6236 28.8034 40.6236 28.8034 40.2697C29.1573 39.9157 28.8034 39.9157 28.4494 39.9157ZM25.264 44.1629C25.9719 44.1629 25.618 43.4551 25.618 43.4551L25.264 43.1011C24.9101 43.1011 24.9101 43.4551 24.9101 43.4551C24.5562 44.1629 24.9101 44.1629 25.264 44.1629Z" fill="url(#paint1_radial)"/>
<path d="M54.9944 21.5112H48.9776V22.927C52.163 23.2809 52.5169 26.8202 52.5169 26.8202C52.5169 26.8202 52.5169 31.7753 52.5169 35.6685C48.9776 31.4213 44.7304 25.7584 43.6686 24.3427L41.545 21.5112H34.4663C34.4663 21.5112 35.8821 23.6348 38.0057 26.1124C40.8371 30.0056 44.7304 34.9607 46.854 37.7921C47.5618 38.8539 51.809 44.5168 52.8708 45.9326H55.7023C55.7023 41.6854 55.7023 23.2809 55.7023 23.2809C55.7023 23.2809 56.0562 21.5112 54.9944 21.5112Z" fill="white"/>
<path d="M38.0057 34.2528C38.0057 32.8371 38.0057 30.3595 38.0057 29.2977H34.4663V36.3764C34.4663 37.4382 34.4663 38.1461 35.5281 38.1461H41.545V36.7303C40.4832 36.7303 39.4214 36.7303 38.7135 36.3764C38.3596 35.6685 38.0057 34.9607 38.0057 34.2528Z" fill="white"/>
<path d="M33.7584 21.5113C30.573 21.5113 27.0336 21.8652 24.2022 25.4045C21.7247 28.236 21.3707 31.7753 21.3707 33.8989C21.3707 42.0393 27.7415 45.9326 31.9887 45.9326C32.3426 45.9326 39.4213 45.9326 39.4213 45.9326V42.3933C38.0056 42.3933 35.882 42.3933 34.1123 42.3933C29.1572 42.3933 25.9719 37.0843 25.9719 33.191C25.9719 29.2978 28.8033 25.7584 30.9269 25.7584C33.0505 25.7584 38.3595 25.7584 38.3595 25.7584C36.5898 23.2809 35.1741 21.1573 34.8202 21.1573C34.1123 21.5113 34.1123 21.5113 33.7584 21.5113Z" fill="#9D9D9D"/>
<path d="M78 45.5786C77.6461 45.9326 77.2921 45.9326 76.9382 45.9326C72.691 45.9326 66.3202 42.0393 66.3202 33.5449C66.3202 31.4213 66.6742 27.882 69.5056 24.6966C72.3371 21.5112 75.8764 20.8034 79.0618 20.8034C79.7697 20.8034 80.4775 20.8034 81.1854 20.8034C82.6011 20.8034 83.309 21.5112 83.309 22.2191C83.309 22.2191 83.309 22.573 83.309 22.927L81.5393 28.5899H80.4775C79.0618 23.9888 78 23.2809 75.8764 23.2809C72.3371 23.2809 70.2135 27.5281 70.2135 31.4213C70.2135 37.7921 74.1067 41.3315 79.0618 41.3315C80.8315 41.3315 81.8933 40.9775 83.6629 40.6236L84.0169 41.3315L78 45.5786Z" fill="#0088FF"/>
<path d="M97.1124 34.6067H96.4045C95.6966 32.4831 94.9888 32.1292 93.927 32.1292C92.8652 32.1292 92.1573 33.191 91.8034 33.8989C91.8034 34.2528 91.8034 35.3146 91.8034 36.0225V40.2697C91.8034 44.5168 92.5112 44.8708 95.3427 45.2247V46.2865H88.618C88.2641 46.2865 87.2022 46.2865 87.2022 44.8708C87.2022 43.455 87.5562 37.4382 87.5562 35.6685C87.5562 30.3595 87.2022 30.0056 84.3708 29.6517V28.2359H90.3876C91.4494 28.2359 91.4494 28.5899 91.4494 29.6517C91.4494 30.0056 91.4494 30.7135 91.4494 31.7753L93.2191 28.2359C93.573 27.882 93.573 27.5281 94.2809 27.5281C94.9888 27.5281 96.0506 27.882 97.4663 28.5899C98.5281 29.2977 98.5281 29.6517 98.5281 30.0056C98.5281 30.7135 98.1742 31.4213 97.8202 31.7753L97.1124 34.6067Z" fill="#0088FF"/>
<path d="M111.27 39.5618C112.331 37.4382 114.455 32.8371 114.455 31.0674C114.455 30.0056 113.393 29.6517 111.624 29.2978V28.236H115.871C116.933 28.236 117.994 28.236 117.994 29.2978C117.994 29.6517 117.994 30.3596 117.64 31.4214C116.933 33.545 114.101 40.2697 111.624 46.2865C111.27 46.9944 110.916 48.4101 110.916 49.118C110.916 50.1798 111.624 50.5337 114.101 51.2416V51.9494H107.376C106.669 51.9494 105.961 51.5955 105.961 50.8876C105.961 50.5337 105.961 50.1798 106.315 49.8259L109.146 44.1629C108.438 42.3933 104.545 33.8989 103.483 31.7753C102.775 30.0056 101.714 29.2978 100.652 29.2978V28.236H105.253C106.669 28.236 107.376 28.236 107.73 29.2978L111.27 39.5618Z" fill="#0088FF"/>
<path d="M129.674 51.9494H123.303C122.595 51.9494 121.888 51.9494 121.888 50.5337C121.888 49.118 122.242 44.1629 122.242 41.3315V39.2079V36.0225C122.242 30.7135 121.888 30.3596 119.41 30.0056V28.236H125.073C126.135 28.236 126.135 28.5899 126.135 29.2978C126.135 29.6517 126.135 30.3596 126.135 32.1292L127.904 28.9438C128.258 28.5899 128.612 28.236 129.674 28.236C131.09 28.236 132.86 28.5899 134.275 29.6517C137.107 31.7753 137.107 34.9607 137.107 36.3764C137.107 41.3315 134.275 46.2865 128.612 46.2865C127.551 46.2865 126.843 46.2865 125.781 45.9326C125.781 50.1798 126.489 50.8876 129.32 51.2416V51.9494H129.674ZM129.674 31.7753C128.258 31.7753 127.197 32.4832 126.489 33.191C126.489 34.2528 126.489 38.8539 126.489 39.5618C126.489 41.6854 126.489 43.809 129.32 43.809C131.798 43.809 133.567 41.3315 133.567 37.4382C133.567 33.191 131.09 31.7753 129.674 31.7753Z" fill="#0088FF"/>
<path d="M149.14 30.3595H145.601C145.601 34.9607 145.601 38.8539 145.601 39.9157C145.955 41.3315 146.663 42.3933 148.786 42.3933C149.14 42.3933 149.848 42.3933 150.202 42.3933L150.556 43.1011L146.309 45.5786C145.955 45.5786 145.601 45.9326 145.247 45.9326C144.893 45.9326 141.354 45.2247 141.354 40.2697C141.354 37.4382 141.354 34.6067 141.354 30.0056C140.292 30.0056 139.938 30.0056 138.876 30.3595V29.6517C140.292 28.9438 141 28.5899 141.354 26.1124C141.354 23.9888 141.354 23.9888 141.708 23.6348C141.708 23.2809 142.062 22.927 142.416 22.927L144.539 21.8652C144.893 21.8652 144.893 21.5112 145.247 21.5112C145.955 21.5112 145.955 21.8652 145.955 22.2191C145.955 22.927 145.955 22.927 145.955 24.3427C145.955 25.4045 145.955 25.7584 145.601 27.5281H149.848L149.14 30.3595Z" fill="#0088FF"/>
<path d="M159.758 27.882C164.713 27.882 168.253 32.1292 168.253 37.4382C168.253 41.6854 165.421 44.1629 164.36 44.8708C162.236 45.9326 160.82 45.9326 159.404 45.9326C153.742 45.9326 151.618 40.2696 151.618 36.7303C151.618 31.4213 154.803 27.882 159.758 27.882ZM160.466 43.809C161.528 43.809 162.59 43.1011 162.944 42.3932C163.652 42.0393 164.006 40.9775 164.006 39.2078C164.006 37.7921 163.298 30.0056 159.404 30.0056C156.927 30.0056 155.865 32.1292 155.865 34.6067C155.865 37.7921 156.927 43.809 160.466 43.809Z" fill="#0088FF"/>
<path d="M168.253 21.5112H175.331L177.455 24.3427C178.517 25.7584 183.118 31.7753 186.657 35.6685C186.657 31.7753 186.657 27.882 186.657 26.8202C186.657 23.6348 186.303 22.927 183.118 22.2191V21.5112H189.489C190.551 21.5112 190.551 22.573 190.551 23.2809C190.551 25.4045 190.551 37.7921 190.551 45.9326H188.781C187.719 44.5168 183.472 39.2079 182.764 38.1461C179.225 33.191 178.517 32.4831 175.685 29.2977C175.685 32.1292 175.685 32.4831 175.685 38.1461C175.685 44.1629 176.039 44.5168 179.579 45.2247V46.2865H173.208C172.854 46.2865 171.438 46.2865 171.438 44.8708C171.438 43.809 171.792 35.6685 171.792 27.1742C171.792 23.6348 171.438 23.2809 168.607 22.573V21.5112H168.253Z" fill="#0088FF"/>
<path d="M204.354 45.2247C204 45.5786 202.938 45.9326 201.169 45.9326C198.337 45.9326 195.152 44.1629 193.736 41.6854C192.32 39.5618 192.32 37.7921 192.32 36.7303C192.32 31.4213 195.506 27.5281 200.107 27.5281C205.062 27.5281 207.185 32.1292 207.185 35.3146C207.185 36.0225 207.185 36.7303 205.77 36.7303C205.062 36.7303 202.23 36.7303 201.876 36.7303C200.461 36.7303 199.399 36.7303 197.983 36.7303C197.275 36.7303 196.921 36.7303 196.921 37.7921C196.921 38.8539 198.691 41.6854 201.876 41.6854C203.292 41.6854 204.708 41.6854 206.831 40.6236L207.185 41.3315L204.354 45.2247ZM196.921 36.3764C197.275 36.3764 197.275 36.3764 197.983 34.2528C199.753 34.2528 200.107 34.2528 200.815 34.2528C201.169 34.2528 201.876 34.2528 203.646 34.2528C203.646 32.8371 203.646 32.1292 202.938 31.0674C202.584 30.3595 201.876 29.6517 200.461 29.6517C196.921 29.6517 196.567 33.5449 196.567 34.6067C196.567 36.0225 196.567 36.3764 196.921 36.3764Z" fill="#0088FF"/>
<path d="M227.006 39.2078C228.421 36.0225 229.129 33.8989 229.129 33.5449C229.483 32.8371 229.837 31.0674 229.837 30.7135C229.837 29.6517 228.775 28.9438 227.006 28.5899V27.882H231.253C232.315 27.882 233.376 27.882 233.376 28.9438C233.376 31.4213 230.545 37.7921 227.006 45.9326H225.59L221.697 36.0225L217.096 45.9326H215.68C212.494 36.7303 211.079 33.8989 209.663 30.7135C209.309 29.6517 208.247 28.9438 206.831 28.5899V27.882H211.787C212.848 27.882 213.556 27.882 213.91 28.9438L217.449 38.8539L221.697 27.882H223.112L227.006 39.2078Z" fill="#0088FF"/>
<path d="M245.056 33.191H244.348C243.64 30.7135 242.225 29.6517 240.455 29.6517C238.331 29.6517 237.624 31.4213 237.624 32.1292C237.624 33.5449 238.685 34.2528 240.455 34.2528C243.994 34.9607 244.348 34.9607 245.056 35.3146C246.826 36.3764 247.534 38.1461 247.534 39.5618C247.534 40.6236 247.18 43.809 243.64 45.2247C242.933 45.5786 241.871 45.9326 240.101 45.9326C238.331 45.9326 237.27 45.5786 236.562 45.2247C235.854 44.8708 234.084 44.1629 234.084 43.455C234.084 43.1011 234.084 42.7472 234.438 42.3932L235.5 39.5618H236.208C236.916 41.3314 237.624 43.809 240.809 43.809C241.871 43.809 243.994 43.1011 243.994 40.9775C243.994 39.2078 242.579 38.8539 241.163 38.5C239.747 38.146 238.685 37.7921 237.978 37.7921C235.5 37.0843 234.084 35.6685 234.084 33.5449C234.084 30.7135 236.208 27.882 240.455 27.882C243.994 27.882 246.118 28.9438 246.118 30.0056C246.118 30.3595 246.118 30.7135 245.764 31.0674L245.056 33.191Z" fill="#0088FF"/>
<path d="M266.292 44.8708C265.938 45.9326 264.876 45.9326 264.169 45.9326H247.534V44.5169C251.073 38.8539 258.86 26.1124 259.567 24.3427C258.506 24.3427 257.444 24.3427 256.382 24.3427C252.489 24.3427 251.073 24.6966 249.303 28.5899H248.242L249.303 22.573C249.303 21.8652 249.657 21.5112 250.719 21.5112H265.938V22.927C263.107 26.4663 254.612 42.0393 253.904 43.1011C254.258 43.1011 254.966 43.1011 256.736 43.1011C263.815 43.1011 264.522 42.0393 265.938 37.7921H267L266.292 44.8708Z" fill="#0088FF"/>
<defs>
<radialGradient id="paint0_radial" cx="0" cy="0" r="1" gradientUnits="userSpaceOnUse" gradientTransform="translate(38.5924 33.6784) scale(25.2857)">
<stop stop-color="#0088FF"/>
<stop offset="0.3726" stop-color="#0087FD"/>
<stop offset="0.5068" stop-color="#0083F6"/>
<stop offset="0.6025" stop-color="#007CEB"/>
<stop offset="0.6798" stop-color="#0073DA"/>
<stop offset="0.746" stop-color="#0066C4"/>
<stop offset="0.8037" stop-color="#0057A9"/>
<stop offset="0.82" stop-color="#0052A0"/>
<stop offset="0.8509" stop-color="#004F9A" stop-opacity="0.9914"/>
<stop offset="0.8933" stop-color="#004688" stop-opacity="0.9796"/>
<stop offset="0.9422" stop-color="#00386B" stop-opacity="0.9661"/>
<stop offset="0.9956" stop-color="#002444" stop-opacity="0.9512"/>
<stop offset="1" stop-color="#002240" stop-opacity="0.95"/>
</radialGradient>
<radialGradient id="paint1_radial" cx="0" cy="0" r="1" gradientUnits="userSpaceOnUse" gradientTransform="translate(38.5928 33.6784) scale(20.5642)">
<stop stop-color="white"/>
<stop offset="1" stop-color="white" stop-opacity="0.5"/>
</radialGradient>
</defs>
</svg>
