<svg width="351" height="97" viewBox="0 0 351 97" fill="none" xmlns="http://www.w3.org/2000/svg">
<rect x="1.25216" y="1.25216" width="348.496" height="94.2284" rx="13.4612" fill="black" fill-opacity="0.8"/>
<rect x="18.4731" y="9.47845" width="67.306" height="77.7759" rx="7.47845" fill="black"/>
<path d="M72.673 64.7813V75.4785H37.2072V64.7813H48.1916V39.0076L37.9252 44.8946V33.3359L53.7196 24.3618H61.6169V64.7813H72.673Z" fill="#FF005C"/>
<path d="M100.809 37.9864H97.1356V44.3136H95.0624V28.673H100.24C102.002 28.673 103.355 29.074 104.301 29.8761C105.253 30.6782 105.729 31.8455 105.729 33.378C105.729 34.352 105.464 35.2006 104.934 35.9239C104.412 36.6472 103.681 37.1879 102.743 37.546L106.417 44.1847V44.3136H104.204L100.809 37.9864ZM97.1356 36.2999H100.305C101.329 36.2999 102.141 36.0349 102.743 35.505C103.352 34.975 103.656 34.2661 103.656 33.378C103.656 32.4112 103.366 31.67 102.786 31.1544C102.213 30.6388 101.382 30.3774 100.294 30.3702H97.1356V36.2999ZM113.141 44.5284C111.566 44.5284 110.284 44.0128 109.296 42.9816C108.307 41.9431 107.813 40.5574 107.813 38.8243V38.4591C107.813 37.3061 108.032 36.2784 108.469 35.3761C108.913 34.4666 109.529 33.7576 110.316 33.2491C111.111 32.7335 111.971 32.4757 112.894 32.4757C114.405 32.4757 115.58 32.9734 116.418 33.9689C117.256 34.9643 117.675 36.3894 117.675 38.2442V39.0714H109.801C109.829 40.2172 110.162 41.1446 110.8 41.8536C111.444 42.5554 112.261 42.9064 113.249 42.9064C113.951 42.9064 114.545 42.7631 115.032 42.4767C115.519 42.1902 115.945 41.8107 116.31 41.338L117.524 42.2833C116.55 43.7801 115.089 44.5284 113.141 44.5284ZM112.894 34.1085C112.092 34.1085 111.419 34.4021 110.875 34.9894C110.331 35.5694 109.994 36.3858 109.865 37.4386H115.687V37.2882C115.63 36.2784 115.358 35.4978 114.871 34.9464C114.384 34.3878 113.725 34.1085 112.894 34.1085ZM119.512 38.4054C119.512 36.5935 119.931 35.1541 120.768 34.087C121.606 33.0128 122.716 32.4757 124.099 32.4757C125.516 32.4757 126.623 32.977 127.418 33.9796L127.515 32.6905H129.33V44.0343C129.33 45.5382 128.882 46.7234 127.987 47.59C127.099 48.4565 125.903 48.8898 124.399 48.8898C123.561 48.8898 122.741 48.7107 121.939 48.3526C121.137 47.9946 120.525 47.504 120.102 46.881L121.134 45.6886C121.986 46.7413 123.028 47.2677 124.26 47.2677C125.226 47.2677 125.978 46.9955 126.516 46.4513C127.06 45.907 127.332 45.1407 127.332 44.1525V43.1534C126.537 44.0701 125.452 44.5284 124.077 44.5284C122.716 44.5284 121.613 43.9806 120.768 42.8849C119.931 41.7892 119.512 40.296 119.512 38.4054ZM121.51 38.631C121.51 39.9415 121.778 40.9728 122.315 41.7247C122.852 42.4695 123.604 42.8419 124.571 42.8419C125.824 42.8419 126.745 42.2726 127.332 41.1339V35.8273C126.723 34.7172 125.81 34.1622 124.593 34.1622C123.626 34.1622 122.87 34.5382 122.326 35.2901C121.782 36.0421 121.51 37.1557 121.51 38.631ZM134.497 44.3136H132.51V32.6905H134.497V44.3136ZM132.349 29.6075C132.349 29.2853 132.445 29.0131 132.639 28.7911C132.839 28.5691 133.133 28.4581 133.519 28.4581C133.906 28.4581 134.2 28.5691 134.4 28.7911C134.601 29.0131 134.701 29.2853 134.701 29.6075C134.701 29.9298 134.601 30.1983 134.4 30.4132C134.2 30.628 133.906 30.7355 133.519 30.7355C133.133 30.7355 132.839 30.628 132.639 30.4132C132.445 30.1983 132.349 29.9298 132.349 29.6075ZM144.455 41.2306C144.455 40.6935 144.251 40.2781 143.843 39.9845C143.442 39.6837 142.736 39.4259 141.726 39.211C140.724 38.9962 139.925 38.7384 139.331 38.4376C138.744 38.1368 138.307 37.7788 138.02 37.3634C137.741 36.948 137.601 36.4539 137.601 35.881C137.601 34.9285 138.002 34.1228 138.805 33.464C139.614 32.8051 140.645 32.4757 141.898 32.4757C143.216 32.4757 144.283 32.8159 145.099 33.4962C145.923 34.1765 146.335 35.0467 146.335 36.1066H144.337C144.337 35.5623 144.104 35.0932 143.639 34.6993C143.18 34.3054 142.6 34.1085 141.898 34.1085C141.175 34.1085 140.609 34.2661 140.201 34.5812C139.793 34.8963 139.589 35.308 139.589 35.8165C139.589 36.2963 139.779 36.658 140.158 36.9015C140.538 37.145 141.222 37.3777 142.21 37.5997C143.205 37.8217 144.011 38.0867 144.627 38.3946C145.243 38.7026 145.697 39.075 145.991 39.5118C146.292 39.9415 146.442 40.4679 146.442 41.0909C146.442 42.1293 146.027 42.9636 145.196 43.5939C144.365 44.2169 143.288 44.5284 141.963 44.5284C141.032 44.5284 140.208 44.3637 139.492 44.0343C138.776 43.7049 138.214 43.2465 137.806 42.6593C137.405 42.0649 137.204 41.4239 137.204 40.7364H139.191C139.227 41.4025 139.492 41.9324 139.986 42.3263C140.488 42.713 141.146 42.9064 141.963 42.9064C142.715 42.9064 143.316 42.756 143.767 42.4552C144.226 42.1472 144.455 41.739 144.455 41.2306ZM151.727 29.8761V32.6905H153.897V34.2267H151.727V41.4347C151.727 41.9002 151.824 42.2511 152.017 42.4874C152.211 42.7166 152.54 42.8312 153.006 42.8312C153.235 42.8312 153.55 42.7882 153.951 42.7023V44.3136C153.428 44.4568 152.92 44.5284 152.426 44.5284C151.538 44.5284 150.868 44.2599 150.417 43.7228C149.966 43.1857 149.74 42.423 149.74 41.4347V34.2267H147.624V32.6905H149.74V29.8761H151.727ZM161.052 44.5284C159.476 44.5284 158.194 44.0128 157.206 42.9816C156.218 41.9431 155.724 40.5574 155.724 38.8243V38.4591C155.724 37.3061 155.942 36.2784 156.379 35.3761C156.823 34.4666 157.439 33.7576 158.226 33.2491C159.021 32.7335 159.881 32.4757 160.805 32.4757C162.316 32.4757 163.49 32.9734 164.328 33.9689C165.166 34.9643 165.585 36.3894 165.585 38.2442V39.0714H157.711C157.739 40.2172 158.072 41.1446 158.71 41.8536C159.354 42.5554 160.171 42.9064 161.159 42.9064C161.861 42.9064 162.455 42.7631 162.942 42.4767C163.429 42.1902 163.855 41.8107 164.221 41.338L165.434 42.2833C164.46 43.7801 163 44.5284 161.052 44.5284ZM160.805 34.1085C160.002 34.1085 159.329 34.4021 158.785 34.9894C158.241 35.5694 157.904 36.3858 157.775 37.4386H163.598V37.2882C163.54 36.2784 163.268 35.4978 162.781 34.9464C162.294 34.3878 161.635 34.1085 160.805 34.1085ZM173.513 34.4737C173.212 34.4236 172.886 34.3985 172.535 34.3985C171.232 34.3985 170.347 34.9536 169.882 36.0636V44.3136H167.894V32.6905H169.828L169.86 34.0333C170.512 32.9949 171.436 32.4757 172.632 32.4757C173.018 32.4757 173.312 32.5258 173.513 32.6261V34.4737ZM184.609 41.4025L187.316 32.6905H189.443L184.77 46.1075C184.047 48.0411 182.898 49.0079 181.322 49.0079L180.946 48.9757L180.205 48.836V47.2247L180.742 47.2677C181.415 47.2677 181.938 47.1316 182.31 46.8595C182.69 46.5873 183.002 46.0896 183.245 45.3663L183.685 44.1847L179.539 32.6905H181.709L184.609 41.4025ZM190.528 38.3946C190.528 37.256 190.75 36.2319 191.194 35.3224C191.645 34.4129 192.268 33.711 193.063 33.2169C193.865 32.7228 194.779 32.4757 195.803 32.4757C197.385 32.4757 198.664 33.0235 199.638 34.1192C200.619 35.215 201.109 36.6723 201.109 38.4913V38.631C201.109 39.7625 200.891 40.7794 200.454 41.6817C200.024 42.5769 199.405 43.2752 198.596 43.7765C197.793 44.2778 196.87 44.5284 195.824 44.5284C194.249 44.5284 192.97 43.9806 191.989 42.8849C191.015 41.7892 190.528 40.339 190.528 38.5343V38.3946ZM192.526 38.631C192.526 39.92 192.823 40.9549 193.418 41.7355C194.019 42.5161 194.821 42.9064 195.824 42.9064C196.834 42.9064 197.636 42.5125 198.23 41.7247C198.825 40.9298 199.122 39.8198 199.122 38.3946C199.122 37.1199 198.818 36.0886 198.209 35.3009C197.607 34.506 196.805 34.1085 195.803 34.1085C194.821 34.1085 194.03 34.4988 193.429 35.2794C192.827 36.06 192.526 37.1772 192.526 38.631ZM210.777 43.1642C210.004 44.0737 208.869 44.5284 207.372 44.5284C206.133 44.5284 205.188 44.1704 204.536 43.4542C203.891 42.7309 203.566 41.6638 203.558 40.253V32.6905H205.546V40.1993C205.546 41.961 206.262 42.8419 207.694 42.8419C209.212 42.8419 210.222 42.2761 210.724 41.1446V32.6905H212.711V44.3136H210.82L210.777 43.1642ZM221.358 34.4737C221.057 34.4236 220.732 34.3985 220.381 34.3985C219.077 34.3985 218.193 34.9536 217.727 36.0636V44.3136H215.74V32.6905H217.674L217.706 34.0333C218.358 32.9949 219.281 32.4757 220.477 32.4757C220.864 32.4757 221.158 32.5258 221.358 32.6261V34.4737ZM229.63 44.3136V34.2267H227.793V32.6905H229.63V31.4982C229.63 30.2521 229.963 29.2888 230.629 28.6085C231.295 27.9282 232.237 27.588 233.454 27.588C233.912 27.588 234.367 27.6489 234.818 27.7706L234.711 29.3819C234.374 29.3175 234.016 29.2853 233.637 29.2853C232.992 29.2853 232.494 29.475 232.143 29.8546C231.793 30.227 231.617 30.7641 231.617 31.4659V32.6905H234.099V34.2267H231.617V44.3136H229.63ZM241.919 34.4737C241.618 34.4236 241.292 34.3985 240.941 34.3985C239.638 34.3985 238.753 34.9536 238.288 36.0636V44.3136H236.301V32.6905H238.234L238.266 34.0333C238.918 32.9949 239.842 32.4757 241.038 32.4757C241.425 32.4757 241.718 32.5258 241.919 32.6261V34.4737ZM248.364 44.5284C246.789 44.5284 245.507 44.0128 244.518 42.9816C243.53 41.9431 243.036 40.5574 243.036 38.8243V38.4591C243.036 37.3061 243.254 36.2784 243.691 35.3761C244.135 34.4666 244.751 33.7576 245.539 33.2491C246.334 32.7335 247.193 32.4757 248.117 32.4757C249.628 32.4757 250.803 32.9734 251.641 33.9689C252.478 34.9643 252.897 36.3894 252.897 38.2442V39.0714H245.023C245.052 40.2172 245.385 41.1446 246.022 41.8536C246.667 42.5554 247.483 42.9064 248.472 42.9064C249.173 42.9064 249.768 42.7631 250.255 42.4767C250.742 42.1902 251.168 41.8107 251.533 41.338L252.747 42.2833C251.773 43.7801 250.312 44.5284 248.364 44.5284ZM248.117 34.1085C247.315 34.1085 246.642 34.4021 246.098 34.9894C245.553 35.5694 245.217 36.3858 245.088 37.4386H250.91V37.2882C250.853 36.2784 250.581 35.4978 250.094 34.9464C249.607 34.3878 248.948 34.1085 248.117 34.1085ZM260.03 44.5284C258.455 44.5284 257.173 44.0128 256.184 42.9816C255.196 41.9431 254.702 40.5574 254.702 38.8243V38.4591C254.702 37.3061 254.92 36.2784 255.357 35.3761C255.801 34.4666 256.417 33.7576 257.205 33.2491C258 32.7335 258.859 32.4757 259.783 32.4757C261.294 32.4757 262.469 32.9734 263.307 33.9689C264.144 34.9643 264.563 36.3894 264.563 38.2442V39.0714H256.689C256.718 40.2172 257.051 41.1446 257.688 41.8536C258.333 42.5554 259.149 42.9064 260.138 42.9064C260.839 42.9064 261.434 42.7631 261.921 42.4767C262.408 42.1902 262.834 41.8107 263.199 41.338L264.413 42.2833C263.439 43.7801 261.978 44.5284 260.03 44.5284ZM259.783 34.1085C258.981 34.1085 258.308 34.4021 257.764 34.9894C257.219 35.5694 256.883 36.3858 256.754 37.4386H262.576V37.2882C262.519 36.2784 262.247 35.4978 261.76 34.9464C261.273 34.3878 260.614 34.1085 259.783 34.1085ZM101.937 70.3136C101.823 70.0844 101.73 69.6762 101.658 69.089C100.734 70.0486 99.6314 70.5284 98.3495 70.5284C97.2037 70.5284 96.2619 70.2062 95.5243 69.5616C94.7938 68.9099 94.4286 68.0864 94.4286 67.0909C94.4286 65.8806 94.8869 64.9425 95.8036 64.2765C96.7274 63.6033 98.0236 63.2667 99.6923 63.2667H101.626V62.3536C101.626 61.659 101.418 61.1075 101.003 60.6993C100.587 60.284 99.9751 60.0763 99.1659 60.0763C98.4569 60.0763 97.8625 60.2553 97.3827 60.6134C96.9029 60.9715 96.663 61.4047 96.663 61.9132H94.6649C94.6649 61.3331 94.869 60.7745 95.2772 60.2374C95.6926 59.6931 96.2512 59.2635 96.953 58.9483C97.662 58.6332 98.439 58.4757 99.2841 58.4757C100.623 58.4757 101.672 58.8123 102.432 59.4855C103.191 60.1515 103.585 61.0717 103.613 62.2462V67.5958C103.613 68.6629 103.749 69.5115 104.021 70.1417V70.3136H101.937ZM98.6395 68.7989C99.2626 68.7989 99.8534 68.6378 100.412 68.3155C100.971 67.9933 101.375 67.5743 101.626 67.0587V64.6739H100.068C97.6333 64.6739 96.4159 65.3865 96.4159 66.8116C96.4159 67.4347 96.6236 67.9217 97.0389 68.2726C97.4543 68.6235 97.9878 68.7989 98.6395 68.7989ZM111.391 68.9064C112.099 68.9064 112.719 68.6915 113.249 68.2618C113.779 67.8321 114.072 67.295 114.13 66.6505H116.01C115.974 67.3165 115.745 67.9503 115.322 68.5519C114.9 69.1534 114.334 69.6332 113.625 69.9913C112.923 70.3494 112.178 70.5284 111.391 70.5284C109.808 70.5284 108.547 70.0021 107.609 68.9493C106.678 67.8894 106.213 66.4428 106.213 64.6095V64.2765C106.213 63.145 106.42 62.1388 106.836 61.2579C107.251 60.3771 107.846 59.6931 108.619 59.2062C109.4 58.7192 110.32 58.4757 111.38 58.4757C112.683 58.4757 113.765 58.866 114.624 59.6466C115.49 60.4272 115.952 61.4405 116.01 62.6866H114.13C114.072 61.9347 113.786 61.3188 113.27 60.839C112.762 60.352 112.132 60.1085 111.38 60.1085C110.37 60.1085 109.586 60.4737 109.027 61.2042C108.476 61.9275 108.2 62.9767 108.2 64.3517V64.7276C108.2 66.0668 108.476 67.0981 109.027 67.8214C109.579 68.5447 110.366 68.9064 111.391 68.9064ZM122.906 68.9064C123.615 68.9064 124.235 68.6915 124.765 68.2618C125.294 67.8321 125.588 67.295 125.645 66.6505H127.525C127.489 67.3165 127.26 67.9503 126.838 68.5519C126.415 69.1534 125.849 69.6332 125.141 69.9913C124.439 70.3494 123.694 70.5284 122.906 70.5284C121.323 70.5284 120.063 70.0021 119.125 68.9493C118.194 67.8894 117.728 66.4428 117.728 64.6095V64.2765C117.728 63.145 117.936 62.1388 118.351 61.2579C118.767 60.3771 119.361 59.6931 120.135 59.2062C120.915 58.7192 121.835 58.4757 122.895 58.4757C124.199 58.4757 125.28 58.866 126.14 59.6466C127.006 60.4272 127.468 61.4405 127.525 62.6866H125.645C125.588 61.9347 125.302 61.3188 124.786 60.839C124.278 60.352 123.647 60.1085 122.895 60.1085C121.886 60.1085 121.101 60.4737 120.543 61.2042C119.991 61.9275 119.716 62.9767 119.716 64.3517V64.7276C119.716 66.0668 119.991 67.0981 120.543 67.8214C121.094 68.5447 121.882 68.9064 122.906 68.9064ZM129.233 64.3946C129.233 63.256 129.455 62.2319 129.899 61.3224C130.35 60.4129 130.974 59.711 131.768 59.2169C132.571 58.7228 133.484 58.4757 134.508 58.4757C136.09 58.4757 137.369 59.0235 138.343 60.1192C139.324 61.215 139.814 62.6723 139.814 64.4913V64.631C139.814 65.7625 139.596 66.7794 139.159 67.6817C138.729 68.5769 138.11 69.2752 137.301 69.7765C136.499 70.2778 135.575 70.5284 134.529 70.5284C132.954 70.5284 131.675 69.9806 130.694 68.8849C129.72 67.7892 129.233 66.339 129.233 64.5343V64.3946ZM131.231 64.631C131.231 65.92 131.529 66.9549 132.123 67.7355C132.724 68.5161 133.527 68.9064 134.529 68.9064C135.539 68.9064 136.341 68.5125 136.935 67.7247C137.53 66.9298 137.827 65.8198 137.827 64.3946C137.827 63.1199 137.523 62.0886 136.914 61.3009C136.312 60.506 135.51 60.1085 134.508 60.1085C133.527 60.1085 132.735 60.4988 132.134 61.2794C131.532 62.06 131.231 63.1772 131.231 64.631ZM149.482 69.1642C148.709 70.0737 147.574 70.5284 146.077 70.5284C144.838 70.5284 143.893 70.1704 143.241 69.4542C142.597 68.7309 142.271 67.6638 142.264 66.253V58.6905H144.251V66.1993C144.251 67.961 144.967 68.8419 146.399 68.8419C147.918 68.8419 148.927 68.2761 149.429 67.1446V58.6905H151.416V70.3136H149.525L149.482 69.1642ZM156.325 58.6905L156.39 60.1515C157.278 59.0343 158.438 58.4757 159.87 58.4757C162.326 58.4757 163.565 59.8614 163.587 62.6329V70.3136H161.599V62.6222C161.592 61.7843 161.399 61.1648 161.019 60.7638C160.647 60.3627 160.063 60.1622 159.268 60.1622C158.624 60.1622 158.058 60.3341 157.571 60.6778C157.084 61.0216 156.705 61.4728 156.432 62.0314V70.3136H154.445V58.6905H156.325ZM169.28 55.8761V58.6905H171.45V60.2267H169.28V67.4347C169.28 67.9002 169.377 68.2511 169.57 68.4874C169.764 68.7166 170.093 68.8312 170.558 68.8312C170.788 68.8312 171.103 68.7882 171.504 68.7023V70.3136C170.981 70.4568 170.473 70.5284 169.978 70.5284C169.09 70.5284 168.421 70.2599 167.97 69.7228C167.518 69.1857 167.293 68.423 167.293 67.4347V60.2267H165.177V58.6905H167.293V55.8761H169.28Z" fill="white"/>
<path d="M322.012 48.3603C322.016 48.2992 322.016 48.238 322.012 48.1769C321.981 47.7383 321.817 47.3202 321.544 46.9792L300.296 20.8235C300.121 20.6074 299.905 20.4286 299.662 20.2973C299.419 20.166 299.153 20.0847 298.879 20.0582C298.605 20.0318 298.328 20.0605 298.065 20.1429C297.802 20.2253 297.557 20.3596 297.345 20.5383L294.483 22.9624C294.27 23.1407 294.094 23.3598 293.965 23.6073C293.836 23.8547 293.756 24.1257 293.73 24.4046C293.704 24.6834 293.733 24.9648 293.814 25.2326C293.895 25.5003 294.027 25.7492 294.202 25.965L312.399 48.3725L294.202 70.78C293.849 71.2162 293.68 71.7773 293.732 72.3403C293.785 72.9032 294.055 73.4219 294.483 73.7826L297.349 76.1944C297.561 76.3731 297.806 76.5075 298.069 76.5899C298.332 76.6722 298.609 76.701 298.883 76.6745C299.157 76.648 299.423 76.5668 299.666 76.4355C299.909 76.3042 300.125 76.1254 300.3 75.9093L321.544 49.7495C321.818 49.4105 321.981 48.9934 322.012 48.5558C322.017 48.4907 322.017 48.4254 322.012 48.3603Z" fill="#ED1B5E"/>
<rect x="1.25216" y="1.25216" width="348.496" height="94.2284" rx="13.4612" stroke="#FF005C" stroke-width="1.49569"/>
</svg>
