<svg width="351" height="97" viewBox="0 0 351 97" fill="none" xmlns="http://www.w3.org/2000/svg">
<rect x="1.25216" y="1.25216" width="348.496" height="94.2284" rx="13.4612" fill="black" fill-opacity="0.8"/>
<rect x="20.2102" y="9.47845" width="67.306" height="77.7759" rx="7.47845" fill="black"/>
<path d="M72.4366 64.7813V75.4785H36.3965V65.571L53.0525 48.1971C56.1635 44.9425 57.719 41.9032 57.719 39.0793C57.719 35.7769 55.7567 34.1256 51.832 34.1256C49.8218 34.1256 47.6919 34.5325 45.4424 35.3461C43.2407 36.1119 41.0152 37.2367 38.7656 38.7204L34.5298 29.1719C36.5879 27.4967 39.2443 26.1805 42.4989 25.2233C45.8014 24.2182 49.1517 23.7156 52.5499 23.7156C56.2353 23.7156 59.4421 24.3139 62.1702 25.5104C64.9462 26.6591 67.0761 28.3343 68.5598 30.536C70.0914 32.6898 70.8572 35.2265 70.8572 38.146C70.8572 41.1135 70.2589 43.8177 69.0623 46.2587C67.9136 48.6518 65.9274 51.356 63.1035 54.3713L52.9089 64.7813H72.4366Z" fill="#FF005C"/>
<path d="M108.315 50.9035C108.122 52.5578 107.509 53.8361 106.478 54.7385C105.454 55.6336 104.09 56.0812 102.385 56.0812C100.538 56.0812 99.0553 55.4188 97.9381 54.0939C96.8281 52.7691 96.2731 50.9966 96.2731 48.7766V47.2726C96.2731 45.8189 96.5309 44.5405 97.0465 43.4377C97.5693 42.3348 98.3069 41.4898 99.2594 40.9025C100.212 40.3081 101.315 40.0109 102.568 40.0109C104.229 40.0109 105.561 40.4764 106.564 41.4074C107.567 42.3312 108.15 43.6131 108.315 45.2531H106.242C106.063 44.007 105.672 43.1047 105.071 42.5461C104.477 41.9875 103.642 41.7082 102.568 41.7082C101.25 41.7082 100.215 42.1952 99.4635 43.1691C98.7187 44.1431 98.3463 45.5288 98.3463 47.3264V48.841C98.3463 50.5383 98.7008 51.8882 99.4098 52.8908C100.119 53.8934 101.111 54.3947 102.385 54.3947C103.531 54.3947 104.408 54.1369 105.017 53.6213C105.633 53.0985 106.041 52.1926 106.242 50.9035H108.315ZM112.988 55.8664H111.001V39.3664H112.988V55.8664ZM123.354 55.8664C123.24 55.6372 123.146 55.229 123.075 54.6418C122.151 55.6014 121.048 56.0812 119.766 56.0812C118.62 56.0812 117.679 55.759 116.941 55.1144C116.211 54.4627 115.845 53.6392 115.845 52.6437C115.845 51.4335 116.304 50.4953 117.22 49.8293C118.144 49.1561 119.44 48.8195 121.109 48.8195H123.043V47.9064C123.043 47.2118 122.835 46.6603 122.42 46.2521C122.004 45.8368 121.392 45.6291 120.583 45.6291C119.874 45.6291 119.279 45.8081 118.799 46.1662C118.32 46.5243 118.08 46.9575 118.08 47.466H116.082C116.082 46.8859 116.286 46.3273 116.694 45.7902C117.109 45.246 117.668 44.8163 118.37 44.5012C119.079 44.1861 119.856 44.0285 120.701 44.0285C122.04 44.0285 123.089 44.3651 123.848 45.0383C124.607 45.7043 125.001 46.6245 125.03 47.799V53.1486C125.03 54.2157 125.166 55.0643 125.438 55.6945V55.8664H123.354ZM120.056 54.3517C120.679 54.3517 121.27 54.1906 121.829 53.8683C122.387 53.5461 122.792 53.1271 123.043 52.6115V50.2267H121.485C119.05 50.2267 117.833 50.9393 117.833 52.3644C117.833 52.9875 118.04 53.4745 118.456 53.8254C118.871 54.1763 119.405 54.3517 120.056 54.3517ZM130.304 55.8664H128.317V44.2433H130.304V55.8664ZM128.156 41.1603C128.156 40.8381 128.253 40.5659 128.446 40.3439C128.646 40.1219 128.94 40.0109 129.327 40.0109C129.714 40.0109 130.007 40.1219 130.208 40.3439C130.408 40.5659 130.508 40.8381 130.508 41.1603C130.508 41.4826 130.408 41.7512 130.208 41.966C130.007 42.1808 129.714 42.2883 129.327 42.2883C128.94 42.2883 128.646 42.1808 128.446 41.966C128.253 41.7512 128.156 41.4826 128.156 41.1603ZM135.364 44.2433L135.418 45.5324C136.27 44.5298 137.419 44.0285 138.866 44.0285C140.491 44.0285 141.598 44.6516 142.185 45.8976C142.572 45.3391 143.073 44.8879 143.689 44.5441C144.312 44.2004 145.046 44.0285 145.891 44.0285C148.441 44.0285 149.737 45.3784 149.78 48.0783V55.8664H147.793V48.1965C147.793 47.3657 147.603 46.7463 147.223 46.3381C146.844 45.9227 146.206 45.715 145.311 45.715C144.574 45.715 143.961 45.937 143.474 46.381C142.987 46.8179 142.704 47.4087 142.626 48.1535V55.8664H140.628V48.2502C140.628 46.5601 139.8 45.715 138.146 45.715C136.843 45.715 135.951 46.27 135.471 47.3801V55.8664H133.484V44.2433H135.364ZM165.421 55.8664C165.306 55.6372 165.213 55.229 165.141 54.6418C164.217 55.6014 163.115 56.0812 161.833 56.0812C160.687 56.0812 159.745 55.759 159.007 55.1144C158.277 54.4627 157.912 53.6392 157.912 52.6437C157.912 51.4335 158.37 50.4953 159.287 49.8293C160.211 49.1561 161.507 48.8195 163.175 48.8195H165.109V47.9064C165.109 47.2118 164.901 46.6603 164.486 46.2521C164.071 45.8368 163.458 45.6291 162.649 45.6291C161.94 45.6291 161.346 45.8081 160.866 46.1662C160.386 46.5243 160.146 46.9575 160.146 47.466H158.148C158.148 46.8859 158.352 46.3273 158.76 45.7902C159.176 45.246 159.734 44.8163 160.436 44.5012C161.145 44.1861 161.922 44.0285 162.767 44.0285C164.106 44.0285 165.156 44.3651 165.915 45.0383C166.674 45.7043 167.068 46.6245 167.096 47.799V53.1486C167.096 54.2157 167.232 55.0643 167.505 55.6945V55.8664H165.421ZM162.123 54.3517C162.746 54.3517 163.337 54.1906 163.895 53.8683C164.454 53.5461 164.858 53.1271 165.109 52.6115V50.2267H163.551C161.116 50.2267 159.899 50.9393 159.899 52.3644C159.899 52.9875 160.107 53.4745 160.522 53.8254C160.937 54.1763 161.471 54.3517 162.123 54.3517ZM172.091 44.2433L172.156 45.7043C173.044 44.5871 174.204 44.0285 175.636 44.0285C178.093 44.0285 179.332 45.4142 179.353 48.1857V55.8664H177.366V48.175C177.359 47.3371 177.165 46.7176 176.786 46.3166C176.413 45.9155 175.83 45.715 175.035 45.715C174.39 45.715 173.825 45.8869 173.338 46.2307C172.851 46.5744 172.471 47.0256 172.199 47.5842V55.8664H170.212V44.2433H172.091ZM181.867 49.9582C181.867 48.175 182.289 46.7427 183.134 45.6613C183.979 44.5728 185.086 44.0285 186.454 44.0285C187.814 44.0285 188.892 44.494 189.687 45.425V39.3664H191.674V55.8664H189.848L189.752 54.6203C188.957 55.5943 187.85 56.0812 186.432 56.0812C185.086 56.0812 183.987 55.5298 183.134 54.4269C182.289 53.3241 181.867 51.8846 181.867 50.1086V49.9582ZM183.854 50.1838C183.854 51.5015 184.126 52.5327 184.671 53.2775C185.215 54.0223 185.967 54.3947 186.926 54.3947C188.187 54.3947 189.107 53.829 189.687 52.6974V47.3586C189.093 46.2629 188.18 45.715 186.948 45.715C185.974 45.715 185.215 46.091 184.671 46.843C184.126 47.5949 183.854 48.7085 183.854 50.1838ZM200.537 55.8664V40.2258H204.952C206.312 40.2258 207.516 40.5266 208.561 41.1281C209.607 41.7297 210.412 42.5855 210.978 43.6955C211.551 44.8055 211.841 46.0803 211.848 47.5197V48.5187C211.848 49.994 211.562 51.2866 210.989 52.3967C210.423 53.5067 209.61 54.3589 208.55 54.9533C207.498 55.5477 206.269 55.8521 204.866 55.8664H200.537ZM202.599 41.923V54.1799H204.769C206.359 54.1799 207.594 53.6857 208.475 52.6974C209.363 51.7092 209.807 50.3019 209.807 48.4758V47.5627C209.807 45.7866 209.388 44.4081 208.55 43.4269C207.72 42.4387 206.538 41.9374 205.005 41.923H202.599ZM219.486 56.0812C217.91 56.0812 216.629 55.5656 215.64 54.5344C214.652 53.496 214.158 52.1102 214.158 50.3771V50.0119C214.158 48.8589 214.376 47.8312 214.813 46.9289C215.257 46.0194 215.873 45.3104 216.661 44.8019C217.456 44.2863 218.315 44.0285 219.239 44.0285C220.75 44.0285 221.924 44.5262 222.762 45.5217C223.6 46.5171 224.019 47.9422 224.019 49.7971V50.6242H216.145C216.174 51.77 216.507 52.6974 217.144 53.4064C217.789 54.1083 218.605 54.4592 219.593 54.4592C220.295 54.4592 220.89 54.3159 221.377 54.0295C221.864 53.743 222.29 53.3635 222.655 52.8908L223.869 53.8361C222.895 55.3329 221.434 56.0812 219.486 56.0812ZM219.239 45.6613C218.437 45.6613 217.764 45.9549 217.219 46.5422C216.675 47.1223 216.339 47.9387 216.21 48.9914H222.032V48.841C221.975 47.8312 221.702 47.0506 221.215 46.4992C220.728 45.9406 220.07 45.6613 219.239 45.6613ZM236.147 50.1838C236.147 51.9527 235.742 53.3778 234.933 54.4592C234.124 55.5405 233.028 56.0812 231.646 56.0812C230.235 56.0812 229.125 55.6336 228.316 54.7385V60.3351H226.329V44.2433H228.144L228.241 45.5324C229.05 44.5298 230.174 44.0285 231.614 44.0285C233.01 44.0285 234.113 44.5549 234.922 45.6076C235.739 46.6603 236.147 48.1249 236.147 50.0012V50.1838ZM234.16 49.9582C234.16 48.6476 233.88 47.6128 233.322 46.8537C232.763 46.0946 231.997 45.715 231.023 45.715C229.82 45.715 228.918 46.2486 228.316 47.3156V52.8693C228.91 53.9292 229.82 54.4592 231.045 54.4592C231.997 54.4592 232.753 54.0832 233.311 53.3312C233.877 52.5721 234.16 51.4478 234.16 49.9582ZM238.156 49.9474C238.156 48.8088 238.378 47.7847 238.822 46.8752C239.273 45.9657 239.896 45.2639 240.691 44.7697C241.493 44.2756 242.406 44.0285 243.43 44.0285C245.013 44.0285 246.291 44.5764 247.265 45.6721C248.246 46.7678 248.737 48.2251 248.737 50.0441V50.1838C248.737 51.3153 248.519 52.3322 248.082 53.2346C247.652 54.1297 247.033 54.828 246.223 55.3293C245.421 55.8306 244.497 56.0812 243.452 56.0812C241.876 56.0812 240.598 55.5334 239.617 54.4377C238.643 53.342 238.156 51.8918 238.156 50.0871V49.9474ZM240.154 50.1838C240.154 51.4728 240.451 52.5077 241.046 53.2883C241.647 54.0689 242.449 54.4592 243.452 54.4592C244.462 54.4592 245.264 54.0653 245.858 53.2775C246.452 52.4826 246.75 51.3726 246.75 49.9474C246.75 48.6727 246.445 47.6415 245.837 46.8537C245.235 46.0588 244.433 45.6613 243.43 45.6613C242.449 45.6613 241.658 46.0516 241.056 46.8322C240.455 47.6128 240.154 48.73 240.154 50.1838ZM257.997 52.7834C257.997 52.2463 257.793 51.8309 257.384 51.5373C256.983 51.2365 256.278 50.9787 255.268 50.7639C254.266 50.549 253.467 50.2912 252.873 49.9904C252.285 49.6896 251.849 49.3316 251.562 48.9162C251.283 48.5008 251.143 48.0067 251.143 47.4338C251.143 46.4813 251.544 45.6756 252.346 45.0168C253.156 44.3579 254.187 44.0285 255.44 44.0285C256.758 44.0285 257.825 44.3687 258.641 45.049C259.465 45.7293 259.877 46.5995 259.877 47.6594H257.879C257.879 47.1151 257.646 46.646 257.18 46.2521C256.722 45.8583 256.142 45.6613 255.44 45.6613C254.717 45.6613 254.151 45.8189 253.743 46.134C253.335 46.4491 253.13 46.8609 253.13 47.3693C253.13 47.8491 253.32 48.2108 253.7 48.4543C254.079 48.6978 254.763 48.9305 255.752 49.1525C256.747 49.3745 257.553 49.6395 258.169 49.9474C258.784 50.2554 259.239 50.6278 259.533 51.0646C259.834 51.4943 259.984 52.0207 259.984 52.6437C259.984 53.6821 259.569 54.5165 258.738 55.1467C257.907 55.7697 256.829 56.0812 255.505 56.0812C254.574 56.0812 253.75 55.9165 253.034 55.5871C252.318 55.2577 251.755 54.7993 251.347 54.2121C250.946 53.6177 250.746 52.9767 250.746 52.2892H252.733C252.769 52.9553 253.034 53.4852 253.528 53.8791C254.029 54.2658 254.688 54.4592 255.505 54.4592C256.256 54.4592 256.858 54.3088 257.309 54.008C257.768 53.7001 257.997 53.2918 257.997 52.7834ZM264.732 55.8664H262.745V44.2433H264.732V55.8664ZM262.584 41.1603C262.584 40.8381 262.68 40.5659 262.874 40.3439C263.074 40.1219 263.368 40.0109 263.755 40.0109C264.141 40.0109 264.435 40.1219 264.635 40.3439C264.836 40.5659 264.936 40.8381 264.936 41.1603C264.936 41.4826 264.836 41.7512 264.635 41.966C264.435 42.1808 264.141 42.2883 263.755 42.2883C263.368 42.2883 263.074 42.1808 262.874 41.966C262.68 41.7512 262.584 41.4826 262.584 41.1603ZM270.619 41.4289V44.2433H272.789V45.7795H270.619V52.9875C270.619 53.453 270.715 53.8039 270.909 54.0402C271.102 54.2694 271.432 54.384 271.897 54.384C272.126 54.384 272.441 54.341 272.842 54.2551V55.8664C272.32 56.0096 271.811 56.0812 271.317 56.0812C270.429 56.0812 269.759 55.8127 269.308 55.2756C268.857 54.7385 268.631 53.9758 268.631 52.9875V45.7795H266.515V44.2433H268.631V41.4289H270.619Z" fill="white"/>
<path d="M320.275 48.3603C320.279 48.2992 320.279 48.238 320.275 48.177C320.243 47.7383 320.08 47.3202 319.807 46.9792L298.559 20.8235C298.384 20.6074 298.168 20.4286 297.925 20.2973C297.682 20.166 297.416 20.0847 297.142 20.0583C296.868 20.0318 296.591 20.0605 296.328 20.1429C296.065 20.2253 295.82 20.3596 295.608 20.5383L292.745 22.9624C292.533 23.1407 292.357 23.3598 292.228 23.6073C292.099 23.8548 292.019 24.1257 291.993 24.4046C291.967 24.6835 291.996 24.9648 292.077 25.2326C292.158 25.5004 292.29 25.7492 292.465 25.965L310.662 48.3725L292.465 70.78C292.112 71.2162 291.942 71.7773 291.995 72.3403C292.048 72.9032 292.317 73.4219 292.745 73.7826L295.612 76.1945C295.824 76.3731 296.069 76.5075 296.332 76.5899C296.595 76.6723 296.872 76.701 297.146 76.6745C297.42 76.648 297.686 76.5668 297.929 76.4355C298.172 76.3042 298.388 76.1254 298.563 75.9093L319.807 49.7495C320.081 49.4105 320.244 48.9934 320.275 48.5558C320.28 48.4907 320.28 48.4254 320.275 48.3603Z" fill="#ED1B5E"/>
<rect x="1.25216" y="1.25216" width="348.496" height="94.2284" rx="13.4612" stroke="#FF005C" stroke-width="1.49569"/>
</svg>
